<svg width="190" height="72" viewBox="0 0 190 72" fill="none" xmlns="http://www.w3.org/2000/svg">
<path d="M56.1665 12.853C58.6088 12.901 61.562 13.3489 64.4354 14.4047C68.2346 15.7964 71.3314 18.1159 73.9653 21.1552C75.7372 23.2028 77.0781 25.5063 78.1636 27.9378C79.0416 29.9214 79.7121 31.9689 80.1271 34.1285C80.4623 35.8401 80.6539 37.5517 80.6698 39.2633C80.7018 41.9828 80.3825 44.6862 79.3768 47.2456C78.9458 48.3494 78.0679 48.8613 76.8866 48.8773C76.1842 48.8773 76.0086 48.6053 76.296 48.0135C76.9983 46.5738 77.4293 45.0381 77.6847 43.4704C78.2435 40.1112 78.1636 36.7519 77.2857 33.4406C75.7532 27.6978 72.8958 22.8349 67.8994 19.4596C63.4776 16.4842 58.5609 15.4765 53.2931 16.0203C50.7071 16.2923 48.2488 16.9641 45.966 18.1959C43.0448 19.7795 40.5865 21.9231 38.6869 24.6905C37.6493 26.1942 36.8511 27.8098 36.2764 29.5214C35.3825 32.2089 35.0473 34.9923 35.3346 37.8397C35.606 40.5111 36.4839 42.9746 37.5375 45.438C38.0643 46.6538 36.3722 46.7018 35.7496 47.3256C35.2707 47.8055 35.0313 47.2776 34.8238 46.9097C33.5627 44.5262 32.7486 42.0148 32.3495 39.3273C31.9823 36.8479 32.0622 34.4004 32.4134 31.9369C32.6368 30.3853 33.1317 28.8816 33.6904 27.4259C34.712 24.8345 36.1966 22.5469 38.0803 20.4834C40.1395 18.2119 42.5659 16.4363 45.3275 15.1565C48.568 13.6529 51.9841 12.853 56.1665 12.853Z" fill="#E74214"/>
<path d="M75.3229 39.4392C75.5305 43.6303 74.3652 47.2615 72.1303 50.5568C70.4382 53.0523 68.2034 54.9559 65.5535 56.4436C61.7224 58.5711 57.6518 59.4189 53.3258 59.067C49.4627 58.7471 45.9189 57.4993 42.6305 55.4038C40.5872 54.0921 38.8792 52.4604 37.2988 50.6528C36.8359 50.1249 36.788 49.741 37.4105 49.3091C37.9693 48.9092 38.4641 48.1733 39.0707 48.1573C39.6773 48.1414 39.9806 49.0212 40.4276 49.4851C43.1413 52.3644 46.318 54.412 50.181 55.4358C53.1502 56.2196 56.1034 56.4116 59.0565 55.6597C63.7656 54.46 67.6766 52.0445 70.2147 47.7574C71.4599 45.6619 72.1463 43.3584 72.4017 40.9269C72.8646 36.3679 71.5716 32.2888 69.0335 28.5296C68.2672 27.3938 67.3573 26.418 66.3197 25.5382C65.9845 25.2503 65.8887 24.9943 66.2719 24.6424C66.7986 24.1625 67.086 23.2507 67.7724 23.1707C68.4748 23.0907 68.9058 23.9545 69.4166 24.4344C71.2045 26.1461 72.4975 28.2096 73.5191 30.4332C74.8281 33.3765 75.5464 36.3999 75.3229 39.4392Z" fill="#E74214"/>
<path d="M38.128 35.9842C38.16 29.0257 42.3742 22.787 48.7435 20.1796C52.1277 18.7879 55.5917 18.5799 59.1674 19.1558C60.9872 19.4597 62.6953 20.0356 64.3554 20.8035C65.3451 21.2674 65.3611 21.3473 64.7864 22.2271C64.7545 22.2751 64.7226 22.3071 64.6907 22.3551C63.8765 23.7628 63.9085 23.6988 62.3441 23.091C59.7581 22.0832 57.0763 21.6193 54.2668 21.9232C50.8347 22.2911 47.8815 23.5869 45.503 26.0663C42.1348 29.5696 40.8418 33.7607 41.7676 38.5756C42.6935 43.3906 45.519 46.7819 49.9088 48.7495C52.5427 49.9172 55.3682 50.4771 58.2735 49.5493C58.6087 49.4373 58.8003 49.4853 58.928 49.8692C59.1674 50.5731 59.4388 51.2609 59.7102 51.9328C59.9496 52.5246 59.4548 52.5566 59.1355 52.6526C56.9805 53.2925 54.7935 53.3245 52.5906 52.9565C48.9351 52.3647 45.7744 50.733 43.1405 48.1416C40.8897 45.9181 39.3732 43.2466 38.6069 40.1593C38.2717 38.7996 38.1121 37.4079 38.128 35.9842Z" fill="#E74214"/>
<path d="M44.0187 36.0962C43.8591 31.2173 47.5146 26.5143 52.3355 25.2505C52.99 25.0746 53.2933 25.2665 53.3891 25.9064C53.405 25.9864 53.421 26.0664 53.421 26.1463C53.6604 28.0819 53.6445 28.0179 51.8247 28.8658C48.7757 30.2895 46.7963 33.7927 47.371 37.248C48.0414 41.3271 51.6491 44.2385 55.5121 44.0305C57.8747 43.9025 60.3649 42.3989 60.4926 39.5355C60.5246 38.7836 60.9556 38.5757 61.6101 38.5117C63.7491 38.3357 63.6214 38.3197 63.4299 40.2713C63.1266 43.4706 61.211 45.5822 58.3057 46.6539C55.1769 47.8057 52.1439 47.2138 49.3025 45.5502C46.1418 43.7426 43.8112 39.8554 44.0187 36.0962Z" fill="#E74214"/>
<path d="M69.4317 38.6232C69.304 43.7741 67.2448 47.7892 63.1582 50.7326C62.7432 51.0365 62.4558 51.0205 62.2004 50.5406C61.9929 50.1727 61.7854 49.8048 61.53 49.4529C61.0032 48.733 61.2107 48.3011 61.929 47.8532C63.4136 46.9094 64.4831 45.5977 65.2973 44.03C66.287 42.1424 66.5424 40.1429 66.3668 38.0793C66.1433 35.3759 65.0578 33.0084 63.1901 31.0408C61.4502 29.2012 59.2472 28.3214 56.773 28.0814C56.2781 28.0335 56.1185 27.8575 56.1504 27.3936C56.1664 27.1537 56.1504 26.9137 56.1504 26.6738C56.1664 24.8821 56.1823 24.7862 57.9702 25.0581C61.6736 25.618 64.6587 27.3776 66.8297 30.5129C68.5537 33.0084 69.3359 35.7598 69.4317 38.6232Z" fill="#E74214"/>
<path d="M55.1601 30.625C58.5602 30.673 60.827 31.7288 62.2637 34.2722C62.4712 34.6401 62.6149 35.0401 62.7745 35.424C62.9182 35.8239 62.6308 35.9519 62.3275 36.0158C62.0402 36.0798 61.7369 36.0638 61.4655 36.1278C60.6833 36.3038 60.0927 36.3518 59.5819 35.456C58.672 33.8563 57.0757 33.4084 55.3357 33.5524C54.2662 33.6484 53.5638 34.3522 53.2605 35.376C52.9891 36.2718 53.3243 37.0076 53.9788 37.5995C54.7291 38.2874 55.5751 38.5273 56.5329 38.0474C56.916 37.8554 57.347 37.7755 57.6184 37.4075C57.9536 36.9276 58.1452 37.0076 58.4645 37.4875C59.3265 38.7513 58.1452 40.5429 57.0278 41.0228C54.8887 41.9346 52.3027 40.8468 51.1214 39.1352C49.3974 36.6397 49.9242 33.5044 52.3346 31.7128C53.3084 30.9449 54.4737 30.641 55.1601 30.625Z" fill="#E74214"/>
<path d="M95.6065 36.7998V23.3674H106.565V36.7998H110.417V20.2519H106.315H91.7552V24.1658V36.7998H95.6065ZM129.368 23.203H118.981V33.6922H129.368V30.1306L133.219 30.929V32.8859C133.219 34.3836 132.94 35.4117 132.382 35.9701C131.787 36.5232 130.696 36.7998 129.11 36.7998H119.239C117.652 36.7998 116.562 36.5232 115.967 35.9701C115.408 35.4117 115.129 34.3836 115.129 32.8859V24.1658C115.129 22.6733 115.408 21.6479 115.967 21.0895C116.557 20.5311 117.647 20.2519 119.239 20.2519H129.11C130.701 20.2519 131.792 20.5311 132.382 21.0895C132.94 21.6479 133.219 22.6733 133.219 24.1658V25.7392L129.368 26.3497V23.203ZM151.529 23.203H141.141V33.6922H151.529V30.1306L155.38 30.929V32.8859C155.38 34.3836 155.101 35.4117 154.542 35.9701C153.947 36.5232 152.857 36.7998 151.27 36.7998H141.4C139.813 36.7998 138.722 36.5232 138.128 35.9701C137.569 35.4117 137.29 34.3836 137.29 32.8859V24.1658C137.29 22.6733 137.569 21.6479 138.128 21.0895C138.717 20.5311 139.808 20.2519 141.4 20.2519H151.27C152.862 20.2519 153.953 20.5311 154.542 21.0895C155.101 21.6479 155.38 22.6733 155.38 24.1658V25.7392L151.529 26.3497V23.203Z" fill="#E74214"/>
<path d="M91.6222 47.8496V40.495H98.3332L97.5365 41.7787H93.3339V47.8496H91.6222ZM104.864 41.7648H101.016V43.7166H104.864C105.163 43.7166 105.367 43.6736 105.476 43.5878C105.58 43.502 105.633 43.3501 105.633 43.1321V42.3493C105.633 42.1313 105.58 41.9794 105.476 41.8936C105.367 41.8077 105.163 41.7648 104.864 41.7648ZM99.3356 47.8496V40.495H105.619C106.196 40.495 106.624 40.6052 106.902 40.8255C107.16 41.0505 107.289 41.4158 107.289 41.9214V43.56C107.289 44.054 107.16 44.4147 106.902 44.642C106.631 44.8716 106.203 44.9864 105.619 44.9864H101.016V47.8496H99.3356ZM111.54 44.9133H114.762L113.165 41.9214L111.54 44.9133ZM108.249 47.8496L112.396 40.495H114.049L118.269 47.8496H116.345L115.461 46.2388H110.799L109.943 47.8496H108.249ZM128.163 47.8496V40.495H126.994L121.821 44.8298C121.606 44.9968 121.449 45.129 121.352 45.2264C121.24 45.3378 121.117 45.4711 120.983 45.6265C120.992 45.4781 121.001 45.3169 121.011 45.1429C121.022 44.969 121.031 44.8403 121.038 44.7568C121.048 44.6431 121.052 44.5098 121.052 44.3567V40.495H119.515V47.8496H120.684L126.083 43.3026C126.238 43.168 126.352 43.0637 126.424 42.9894C126.54 42.8758 126.63 42.7807 126.695 42.7042C126.691 42.7877 126.681 42.899 126.667 43.0381C126.654 43.1773 126.644 43.2805 126.64 43.3478C126.63 43.4893 126.626 43.6644 126.626 43.8731V47.8496H128.163ZM122.277 40.495V39.2426H125.599V40.495H122.277ZM134.621 41.8066V47.8496H132.913V41.8066H129.535V40.495H138.013V41.8066H134.621ZM138.786 47.8496V40.495H146.311V41.7509H140.497V43.3895H143.889V44.642H140.497V46.4684H146.384V47.8496H138.786ZM147.87 47.8496V40.495H149.595V43.56L153.669 40.495H156.15L151.276 43.9601L156.748 47.8496H153.996L149.595 44.6141V47.8496H147.87Z" fill="#E74214"/>
</svg>
