<svg width="192" height="72" viewBox="0 0 192 72" fill="none" xmlns="http://www.w3.org/2000/svg">
<g clip-path="url(#clip0_1_467)">
<path fill-rule="evenodd" clip-rule="evenodd" d="M159.199 44.5633V31.6924H165.265V27.4375H147.646V31.6924H153.713V44.5633H159.199Z" fill="#E74214"/>
<path fill-rule="evenodd" clip-rule="evenodd" d="M125.597 44.5633V40.4148H117.315C116.998 40.4148 116.524 40.4148 116.26 40.2021C116.154 40.0957 115.996 39.8829 115.996 39.5638V37.7023H125.28V33.9793H115.996V32.7029C115.996 32.4901 115.996 32.0647 116.26 31.8519C116.471 31.6924 116.787 31.586 117.104 31.586H125.492V27.4375H113.253C112.62 27.4375 111.829 27.5439 111.196 28.1289C110.563 28.714 110.457 29.4054 110.457 30.0968V41.8508C110.457 42.6486 110.457 43.34 111.248 44.0314C111.881 44.5633 112.62 44.6165 113.306 44.6165H125.597V44.5633Z" fill="#E74214"/>
<path fill-rule="evenodd" clip-rule="evenodd" d="M89.4614 40.3616H87.8262V44.5633H107.925V40.3616H106.237L101.7 29.3522C101.383 28.5012 100.645 27.4375 97.849 27.4375C95.0005 27.4375 94.3147 28.5012 93.9982 29.3522L89.4614 40.3616ZM97.5853 32.9688C97.638 32.8093 97.6908 32.5433 97.849 32.5433C98.0073 32.5433 98.06 32.8093 98.1128 32.9688L100.803 40.3084H94.8949L97.5853 32.9688Z" fill="#E74214"/>
<path fill-rule="evenodd" clip-rule="evenodd" d="M138.573 31.5867C138.89 31.5867 139.154 31.5867 139.418 31.8526C139.681 32.1186 139.681 32.4377 139.681 32.7568V44.6172H145.167V29.938C145.167 29.3529 145.062 28.7679 144.534 28.1828C143.849 27.4914 143.058 27.4382 142.055 27.4382H131.346C130.555 27.4382 129.553 27.3851 128.814 28.1828C128.286 28.7147 128.182 29.3529 128.182 29.938V44.564H133.668V32.7036C133.668 32.3845 133.668 32.0654 133.931 31.7995C134.195 31.5335 134.511 31.5335 134.775 31.5335H138.573V31.5867Z" fill="#E74214"/>
<path fill-rule="evenodd" clip-rule="evenodd" d="M65.0879 44.5632H70.7851L72.104 41.053H78.1704L79.4892 44.5632H85.1865L78.9617 29.4585C78.1704 27.5438 76.7461 27.3843 75.1108 27.3843C72.5259 27.3843 71.7874 28.1821 71.2599 29.4585L65.0879 44.5632ZM74.8998 32.9156C74.9525 32.8092 75.058 32.5433 75.1108 32.5433C75.1635 32.5433 75.2691 32.8092 75.3218 32.9156L76.8516 37.2236H73.37L74.8998 32.9156Z" fill="#E74214"/>
<path fill-rule="evenodd" clip-rule="evenodd" d="M43.3095 27.3843L38.334 32.4954L45.7035 41.2032L56.6873 41.1559L43.3095 27.3843Z" fill="#E74214"/>
<path fill-rule="evenodd" clip-rule="evenodd" d="M41.853 41.9126L43.2611 40.4928L37.4406 33.394L26.5977 44.5628H60.2063L57.6246 41.9599L41.853 41.9126Z" fill="#E74214"/>
</g>
<defs>
<clipPath id="clip0_1_467">
<rect width="139.68" height="18.24" fill="white" transform="translate(26.1602 26.8799)"/>
</clipPath>
</defs>
</svg>
