<svg width="190" height="72" viewBox="0 0 190 72" fill="none" xmlns="http://www.w3.org/2000/svg">
<g clip-path="url(#clip0_1_427)">
<path fill-rule="evenodd" clip-rule="evenodd" d="M29.9258 17.8125H47.6826L59.482 31.5501L60.7676 33.0641L61.705 34.4606L62.7548 36.4407L63.8081 39.2337L64.3919 41.3293L64.7417 43.8913V53.4375H49.6718V44.8216L49.4379 43.8913L49.2041 42.3772L48.6183 40.7478L48.0345 39.2337L46.6331 37.0225L44.0622 33.8788L29.9258 17.8125Z" fill="#EA4C14"/>
<path fill-rule="evenodd" clip-rule="evenodd" d="M66.4949 17.8125H84.9535L67.6623 37.2556L66.7286 38.885L66.2609 39.9329L66.027 38.4189L65.3235 36.3233L63.922 33.6457L62.1724 30.9684L60.3014 28.7571L58.666 26.8944L66.4949 17.8125Z" fill="#EA4C14"/>
<path d="M107.035 17.8125H91.0273V53.4375H107.035V17.8125Z" fill="#EA4C14"/>
<path fill-rule="evenodd" clip-rule="evenodd" d="M127.482 33.1796H115.564V17.8125H130.169L131.104 17.93L132.622 18.1631L133.909 18.6274L135.776 19.211L134.609 20.2589L133.207 21.538L131.806 23.285L130.754 25.1477L129.701 27.2433L129.119 29.6876L128.767 32.0163L128.417 33.6459C128.417 33.6459 128.183 33.4128 128.068 33.2973C127.714 33.1796 127.482 33.1796 127.482 33.1796Z" fill="#EA4C14"/>
<path fill-rule="evenodd" clip-rule="evenodd" d="M146.06 17.8125H160.077V31.9006H149.331L148.28 32.0162L147.344 32.3649L146.41 32.9465L145.709 33.7634L145.239 34.8111L144.891 35.9746L144.773 37.0225V53.4375H130.635V33.9944L130.755 32.7155L131.104 30.7353L131.688 28.9902L132.506 27.1256L133.675 24.9144L135.309 22.8186L137.18 21.0735L139.165 19.7925L140.919 18.8604L142.672 18.2786L145.359 17.8125H146.06Z" fill="#EA4C14"/>
</g>
<defs>
<clipPath id="clip0_1_427">
<rect width="130.15" height="35.625" fill="white" transform="translate(29.9258 17.8125)"/>
</clipPath>
</defs>
</svg>
