<svg width="49" height="36" viewBox="0 0 49 36" fill="none" xmlns="http://www.w3.org/2000/svg">
<path d="M4.08759 34.2774H21.927V1H4.08759V34.2774ZM4.08759 34.2774H1" stroke="#F5F5F5" stroke-width="1.5" stroke-linecap="round" stroke-linejoin="round"/>
<rect x="6.48926" y="3.40137" width="3.08759" height="3.43066" stroke="#F5F5F5" stroke-width="1.5" stroke-linejoin="round"/>
<rect x="25.0146" y="15.0657" width="6.86131" height="3.43066" stroke="#F5F5F5" stroke-width="1.5" stroke-linejoin="round"/>
<rect x="35.3066" y="15.0657" width="6.86131" height="3.43066" stroke="#F5F5F5" stroke-width="1.5" stroke-linejoin="round"/>
<rect x="25.0146" y="20.8977" width="6.86131" height="3.43066" stroke="#F5F5F5" stroke-width="1.5" stroke-linejoin="round"/>
<rect x="35.3066" y="20.8977" width="6.86131" height="3.43066" stroke="#F5F5F5" stroke-width="1.5" stroke-linejoin="round"/>
<rect x="25.0146" y="26.73" width="6.86131" height="3.43066" stroke="#F5F5F5" stroke-width="1.5" stroke-linejoin="round"/>
<rect x="35.3066" y="26.73" width="6.86131" height="3.43066" stroke="#F5F5F5" stroke-width="1.5" stroke-linejoin="round"/>
<rect x="6.48926" y="9.23364" width="3.08759" height="3.43066" stroke="#F5F5F5" stroke-width="1.5" stroke-linejoin="round"/>
<rect x="6.48926" y="15.0657" width="3.08759" height="3.43066" stroke="#F5F5F5" stroke-width="1.5" stroke-linejoin="round"/>
<rect x="6.48926" y="20.8977" width="3.08759" height="3.43066" stroke="#F5F5F5" stroke-width="1.5" stroke-linejoin="round"/>
<rect x="16.438" y="3.40137" width="3.08759" height="3.43066" stroke="#F5F5F5" stroke-width="1.5" stroke-linejoin="round"/>
<rect x="16.438" y="9.23364" width="3.08759" height="3.43066" stroke="#F5F5F5" stroke-width="1.5" stroke-linejoin="round"/>
<rect x="16.438" y="15.0657" width="3.08759" height="3.43066" stroke="#F5F5F5" stroke-width="1.5" stroke-linejoin="round"/>
<rect x="16.438" y="20.8977" width="3.08759" height="3.43066" stroke="#F5F5F5" stroke-width="1.5" stroke-linejoin="round"/>
<rect x="11.6353" y="3.40137" width="2.74453" height="3.43066" stroke="#F5F5F5" stroke-width="1.5" stroke-linejoin="round"/>
<rect x="11.6353" y="9.23364" width="2.74453" height="3.43066" stroke="#F5F5F5" stroke-width="1.5" stroke-linejoin="round"/>
<rect x="11.6353" y="15.0657" width="2.74453" height="3.43066" stroke="#F5F5F5" stroke-width="1.5" stroke-linejoin="round"/>
<rect x="11.6353" y="20.8977" width="2.74453" height="3.43066" stroke="#F5F5F5" stroke-width="1.5" stroke-linejoin="round"/>
<path d="M45.3636 34.2774V12.6643H21.9272V34.2774H45.3636ZM45.3636 34.2774H48.0002" stroke="#F5F5F5" stroke-width="1.5" stroke-linecap="round" stroke-linejoin="round"/>
<line x1="3.74463" y1="24.2646" x2="21.9271" y2="24.2646" stroke="#F5F5F5" stroke-width="1.5"/>
<line x1="6.08203" y1="34.6204" x2="6.08203" y2="26.3868" stroke="#F5F5F5" stroke-width="1.5"/>
<line x1="10.1987" y1="34.6204" x2="10.1987" y2="26.3868" stroke="#F5F5F5" stroke-width="1.5"/>
<line x1="15.002" y1="34.6204" x2="15.002" y2="26.3868" stroke="#F5F5F5" stroke-width="1.5"/>
<line x1="19.4619" y1="34.6204" x2="19.4619" y2="26.3868" stroke="#F5F5F5" stroke-width="1.5"/>
<line x1="3.74463" y1="26.323" x2="21.9271" y2="26.323" stroke="#F5F5F5" stroke-width="1.5"/>
</svg>
